# xmcd CD database file
#
# Track frame offsets:
#	150
#	13303
#	25276
#	35605
#	49649
#	62245
#	72032
#	85155
#	97890
#	112604
#	124348
#	137726
#	149876
#	163822
#	178225
#	191213
#	205947
#	221676
#	234654
#	247421
#
# Disc length: 3547 seconds
#
# Revision: 0
# Processed by: cddbd v1.5.2PL0 Copyright (c) Steve Scherf et al.
# Submitted via: CDex 1.51
#
DISCID=370dd914
DTITLE=_ - Jazzowanki Rozrabianki
DYEAR=1900
DGENRE=Jazz
TTITLE0=Swing That Music
TTITLE1=A-Tisket, A-Tasket
TTITLE2=I Got Rythm
TTITLE3=Jumpin' At The Woodside
TTITLE4=Caravan
TTITLE5=Alexander's Ragtime Band
TTITLE6=Charleston
TTITLE7=Sugar Foot Stomp
TTITLE8=Cotton Tail
TTITLE9=Mendelssohn's Spring Song
TTITLE10=London Bridge Is Fallin' Down
TTITLE11=Oui, C'est Ca
TTITLE12=Stop Beatin' Round The Mulberry Bush
TTITLE13=Where The Blues Were Born In New Orleans
TTITLE14=You
TTITLE15=Gonna Buy Me a Telephone
TTITLE16=Chicago
TTITLE17=Down Under
TTITLE18=All The Things You Are
TTITLE19=I Got Rythm
EXTD=
EXTT0=
EXTT1=
EXTT2=
EXTT3=
EXTT4=
EXTT5=
EXTT6=
EXTT7=
EXTT8=
EXTT9=
EXTT10=
EXTT11=
EXTT12=
EXTT13=
EXTT14=
EXTT15=
EXTT16=
EXTT17=
EXTT18=
EXTT19=
PLAYORDER=
